HIERARCHY
ROOT Hips
{
  OFFSET 51.0842 100.565 8.48719
  CHANNELS 6 Xposition Yposition Zposition Zrotation Xrotation Yrotation
  JOINT spine
  {
    OFFSET 0 8.81704 0.507024
    CHANNELS 3 Zrotation Xrotation Yrotation
    JOINT spine1
    {
      OFFSET 0 10.7766 0
      CHANNELS 3 Zrotation Xrotation Yrotation
      JOINT spine2
      {
        OFFSET 0 10.3259 0
        CHANNELS 3 Zrotation Xrotation Yrotation
        JOINT Neck
        {
          OFFSET 0 26.511 1.26395
          CHANNELS 3 Zrotation Xrotation Yrotation
          JOINT Head
          {
            OFFSET 0 8.00966 0
            CHANNELS 3 Zrotation Xrotation Yrotation
            End Site
            {
              OFFSET 0 19.3879 -6.39386
            }
          }
        }
        JOINT RightShoulder
        {
          OFFSET -4.34795 11.1512 -0.605422
          CHANNELS 3 Zrotation Xrotation Yrotation
          JOINT RightArm
          {
            OFFSET 0 14.6258 0
            CHANNELS 3 Zrotation Xrotation Yrotation
            JOINT RightArmRoll
            {
              OFFSET 0 7.3834 0
              CHANNELS 3 Zrotation Xrotation Yrotation
              JOINT RightForeArm
              {
                OFFSET 0 21.5052 0
                CHANNELS 3 Zrotation Xrotation Yrotation
                JOINT RightForeArmRoll
                {
                  OFFSET 0 8.28532 0
                  CHANNELS 3 Zrotation Xrotation Yrotation
                  JOINT RightHand
                  {
                    OFFSET 0 16.6268 0
                    CHANNELS 3 Zrotation Xrotation Yrotation
                    End Site
                    {
                      OFFSET 0 0 0
                    }
                  }
                }
              }
            }
          }
        }
        JOINT LeftShoulder
        {
          OFFSET 4.34795 11.1512 -0.605422
          CHANNELS 3 Zrotation Xrotation Yrotation
          JOINT LeftArm
          {
            OFFSET 0 14.6258 0
            CHANNELS 3 Zrotation Xrotation Yrotation
            JOINT LeftArmRoll
            {
              OFFSET 0 7.3834 0
              CHANNELS 3 Zrotation Xrotation Yrotation
              JOINT LeftForeArm
              {
                OFFSET 0 21.5052 0
                CHANNELS 3 Zrotation Xrotation Yrotation
                JOINT LeftForeArmRoll
                {
                  OFFSET 0 8.28532 0
                  CHANNELS 3 Zrotation Xrotation Yrotation
                  JOINT LeftHand
                  {
                    OFFSET 0 16.6268 0
                    CHANNELS 3 Zrotation Xrotation Yrotation
                    End Site
                    {
                      OFFSET 0 0 0
                    }
                  }
                }
              }
            }
          }
        }
      }
    }
  }
  JOINT RightUpLeg
  {
    OFFSET -7.8151 -1.43309 -1.20217
    CHANNELS 3 Zrotation Xrotation Yrotation
    JOINT RightUpLegRoll
    {
      OFFSET 0 19.4959 0
      CHANNELS 3 Zrotation Xrotation Yrotation
      JOINT RightLeg
      {
        OFFSET 0 -24.1427 0
        CHANNELS 3 Zrotation Xrotation Yrotation
        JOINT RightLegRoll
        {
          OFFSET 0 24.2217 0
          CHANNELS 3 Zrotation Xrotation Yrotation
          JOINT RightFoot
          {
            OFFSET 0 20.1605 0
            CHANNELS 3 Zrotation Xrotation Yrotation
            JOINT RightToeBase
            {
              OFFSET 0 16.8532 0
              CHANNELS 3 Zrotation Xrotation Yrotation
              End Site
              {
                OFFSET 0.00714343 8.16187 -0.94078
              }
            }
          }
        }
      }
    }
  }
  JOINT LeftUpLeg
  {
    OFFSET 7.8151 -1.43309 -1.20217
    CHANNELS 3 Zrotation Xrotation Yrotation
    JOINT LeftUpLegRoll
    {
      OFFSET 0 19.496 0
      CHANNELS 3 Zrotation Xrotation Yrotation
      JOINT LeftLeg
      {
        OFFSET 0 24.1426 0
        CHANNELS 3 Zrotation Xrotation Yrotation
        JOINT LeftLegRoll
        {
          OFFSET 0 24.4456 0
          CHANNELS 3 Zrotation Xrotation Yrotation
          JOINT LeftFoot
          {
            OFFSET 0 19.9366 0
            CHANNELS 3 Zrotation Xrotation Yrotation
            JOINT LeftToeBase
            {
              OFFSET 0 16.8532 0
              CHANNELS 3 Zrotation Xrotation Yrotation
              End Site
              {
                OFFSET -0.0320138 8.16187 -0.94078
              }
            }
          }
        }
      }
    }
  }
}
MOTION
Frames: 9
Frame Time: 0.00208333
51.4067 100.6 9.07484 -0.889196 -2.41504 3.37365 0.0554169 -2.23885 0.00289421 0.114803 -0.474882 0.000729578 0.114898 1.17018 -0.00119418 -3.77713 29.6663 1.25307 -4.95859 -9.0128 -1.10794 66.2705 -2.24173 -2.12151 102.963 9.83714 18.0122 -9.91241e-006 -1.45595e-006 -2.58825e-008 12.0747 4.09145 -0.789747 -2.08028e-006 3.32346e-007 -3.00547 8.02887 -4.95145 0.697679 -62.8122 -3.81624 2.69415 -107.821 12.6246 -9.44987 4.79137e-006 5.59249e-007 4.82596e-006 -9.23824 1.24604 0.678986 5.20531e-006 5.26823e-006 2.99999 -8.02901 -4.95145 -0.697674 179.563 -1.44616 -1.20989 180 7.01548e-015 178.926 178.953 4.89729 179.709 -1.97084e-006 -2.10288e-006 0.0305599 -18.355 67.595 19.2037 8.13649 25.2327 -3.48774 -176.827 -0.932215 2.20048 4.54188e-006 -4.6773e-006 -1.11865 -1.99795 -7.84528 0.172717 1.95755e-006 -6.86802e-006 -0.140686 19.7095 69.2524 -20.6236 -8.14904 25.4334 3.22518 
51.4021 100.603 9.11511 -0.890425 -2.42291 3.35965 0.0557058 -2.23761 0.00355958 0.115008 -0.472394 0.00203757 0.115177 1.17267 0.000107094 -3.78406 29.6687 1.26345 -4.96569 -9.00766 -1.10149 66.2758 -2.23701 -2.11953 102.963 9.8342 17.9991 -9.91241e-006 -1.45595e-006 -2.58825e-008 12.0849 4.09597 -0.790142 -2.08028e-006 3.32346e-007 -3.00547 8.02887 -4.95145 0.697679 -62.8083 -3.82705 2.70003 -107.827 12.6285 -9.44912 4.79137e-006 5.59249e-007 4.82596e-006 -9.23605 1.24578 0.678883 5.20531e-006 5.26823e-006 2.99999 -8.02901 -4.95145 -0.697674 179.565 -1.45566 -1.21089 180 7.01548e-015 178.926 178.955 4.89706 179.709 -1.97084e-006 -2.10288e-006 0.0305599 -18.3547 67.5946 19.2033 8.13649 25.2327 -3.48774 -176.823 -0.951932 2.19575 4.54188e-006 -4.6773e-006 -1.11865 -2.00122 -7.83238 0.172903 1.95755e-006 -6.86802e-006 -0.140917 19.7079 69.2507 -20.6219 -8.14898 25.4325 3.22458 
51.3927 100.604 9.10611 -0.891649 -2.43108 3.34542 0.0560114 -2.23632 0.00426608 0.115222 -0.469804 0.00342665 0.115471 1.17526 0.00148897 -3.79108 29.6714 1.27388 -4.9728 -9.00277 -1.09503 66.281 -2.23205 -2.11743 102.963 9.83147 17.9868 -9.91241e-006 -1.45595e-006 -2.58825e-008 12.0945 4.09917 -0.790362 -2.08028e-006 3.32346e-007 -3.00547 8.02887 -4.95145 0.697679 -62.8041 -3.83812 2.70603 -107.833 12.6324 -9.44841 4.79137e-006 5.59249e-007 4.82596e-006 -9.23377 1.24552 0.678769 5.20531e-006 5.26823e-006 2.99999 -8.02901 -4.95145 -0.697674 179.568 -1.46546 -1.2119 180 7.01548e-015 178.926 178.957 4.89696 179.708 -1.97084e-006 -2.10288e-006 0.0305599 -18.3543 67.5941 19.2029 8.13649 25.2327 -3.48774 -176.82 -0.972326 2.19088 4.54188e-006 -4.6773e-006 -1.11866 -2.00459 -7.81902 0.173086 1.95755e-006 -6.86802e-006 -0.141152 19.7062 69.249 -20.6202 -8.14892 25.4315 3.22397 
51.3895 100.605 9.13754 -0.892871 -2.43947 3.33103 0.0563287 -2.23499 0.00500135 0.115443 -0.467144 0.00487248 0.115774 1.17792 0.00292727 -3.79816 29.6743 1.28436 -4.97991 -8.99805 -1.08857 66.2863 -2.22692 -2.11524 102.964 9.82887 17.9749 -9.91241e-006 -1.45595e-006 -2.58825e-008 12.1036 4.10146 -0.790458 -2.08028e-006 3.32346e-007 -3.00547 8.02887 -4.95145 0.697679 -62.7999 -3.84936 2.71213 -107.839 12.6362 -9.44773 4.79137e-006 5.59249e-007 4.82596e-006 -9.23142 1.24526 0.678647 5.20531e-006 5.26823e-006 2.99999 -8.02901 -4.95145 -0.697674 179.571 -1.47545 -1.2129 180 7.01548e-015 178.926 178.959 4.89694 179.708 -1.97084e-006 -2.10288e-006 0.0305599 -18.3539 67.5936 19.2024 8.13649 25.2327 -3.48774 -176.816 -0.993195 2.18592 4.54188e-006 -4.6773e-006 -1.11867 -2.00804 -7.80535 0.173268 1.95755e-006 -6.86802e-006 -0.141389 19.7045 69.2471 -20.6183 -8.14885 25.4305 3.22336 
51.3911 100.608 9.13929 -0.894094 -2.44799 3.31655 0.0566527 -2.23364 0.00575307 0.115668 -0.464444 0.00635074 0.116084 1.18062 0.00439781 -3.80527 29.6773 1.29485 -4.98703 -8.99343 -1.08211 66.2916 -2.22169 -2.113 102.965 9.82636 17.9634 -9.91241e-006 -1.45595e-006 -2.58825e-008 12.1126 4.10321 -0.790485 -2.08028e-006 3.32346e-007 -3.00547 8.02887 -4.95145 0.697679 -62.7956 -3.86071 2.71828 -107.846 12.6401 -9.44706 4.79137e-006 5.59249e-007 4.82596e-006 -9.22903 1.24499 0.678522 5.20531e-006 5.26823e-006 2.99999 -8.02901 -4.95145 -0.697674 179.573 -1.48556 -1.21389 180 7.01548e-015 178.926 178.961 4.89697 179.708 -1.97084e-006 -2.10288e-006 0.0305599 -18.3535 67.5931 19.202 8.13649 25.2327 -3.48774 -176.812 -1.01434 2.18089 4.54188e-006 -4.6773e-006 -1.11869 -2.01153 -7.7915 0.173449 1.95755e-006 -6.86802e-006 -0.141627 19.7027 69.2453 -20.6164 -8.14878 25.4294 3.22274 
51.3895 100.606 9.11315 -0.89532 -2.45653 3.30204 0.0569783 -2.23228 0.0065089 0.115894 -0.461733 0.00783711 0.116395 1.18333 0.00587641 -3.81238 29.6804 1.30536 -4.99415 -8.98884 -1.07564 66.2969 -2.21644 -2.11075 102.966 9.82387 17.9519 -9.91241e-006 -1.45595e-006 -2.58825e-008 12.1214 4.10483 -0.790493 -2.08028e-006 3.32346e-007 -3.00547 8.02887 -4.95145 0.697679 -62.7912 -3.87207 2.72444 -107.852 12.6439 -9.4464 4.79137e-006 5.59249e-007 4.82596e-006 -9.22664 1.24472 0.678396 5.20531e-006 5.26823e-006 2.99999 -8.02901 -4.95145 -0.697674 179.576 -1.49571 -1.21489 180 7.01548e-015 178.926 178.963 4.89702 179.708 -1.97084e-006 -2.10288e-006 0.0305599 -18.3531 67.5926 19.2015 8.13649 25.2327 -3.48774 -176.809 -1.03554 2.17585 4.54188e-006 -4.6773e-006 -1.1187 -2.01503 -7.77761 0.17363 1.95755e-006 -6.86802e-006 -0.141865 19.701 69.2434 -20.6145 -8.1487 25.4284 3.22213 
51.3856 100.601 9.12845 -0.896552 -2.46502 3.28758 0.0573005 -2.23093 0.00725651 0.116118 -0.459042 0.00930726 0.116703 1.18602 0.0073389 -3.81949 29.6833 1.31585 -5.00127 -8.9842 -1.06918 66.3022 -2.21124 -2.10852 102.966 9.82133 17.9402 -9.91241e-006 -1.45595e-006 -2.58825e-008 12.1304 4.10671 -0.790537 -2.08028e-006 3.32346e-007 -3.00547 8.02887 -4.95145 0.697679 -62.7869 -3.88339 2.73058 -107.858 12.6478 -9.44574 4.79137e-006 5.59249e-007 4.82596e-006 -9.22426 1.24445 0.678271 5.20531e-006 5.26823e-006 2.99999 -8.02901 -4.95145 -0.697674 179.579 -1.50579 -1.21589 180 7.01548e-015 178.926 178.965 4.89703 179.708 -1.97084e-006 -2.10288e-006 0.0305599 -18.3527 67.592 19.2011 8.13649 25.2327 -3.48774 -176.805 -1.05662 2.17084 4.54188e-006 -4.6773e-006 -1.11871 -2.01851 -7.76381 0.173811 1.95755e-006 -6.86802e-006 -0.142102 19.6992 69.2415 -20.6127 -8.14863 25.4273 3.22152 
51.3999 100.603 9.11647 -0.897793 -2.47335 3.27324 0.0576144 -2.22961 0.00798356 0.116337 -0.456402 0.0107369 0.117004 1.18867 0.00876109 -3.82655 29.6862 1.32632 -5.00838 -8.97943 -1.06272 66.3074 -2.20615 -2.10635 102.967 9.81869 17.9282 -9.91241e-006 -1.45595e-006 -2.58825e-008 12.1397 4.10926 -0.790669 -2.08028e-006 3.32346e-007 -3.00547 8.02887 -4.95145 0.697679 -62.7827 -3.89458 2.73665 -107.864 12.6516 -9.44505 4.79137e-006 5.59249e-007 4.82596e-006 -9.22193 1.24418 0.678152 5.20531e-006 5.26823e-006 2.99999 -8.02901 -4.95145 -0.697674 179.581 -1.51573 -1.21689 180 7.01548e-015 178.926 178.967 4.89697 179.708 -1.97084e-006 -2.10288e-006 0.0305599 -18.3523 67.5915 19.2007 8.13649 25.2327 -3.48774 -176.801 -1.07735 2.1659 4.54188e-006 -4.6773e-006 -1.11873 -2.02194 -7.75023 0.173994 1.95755e-006 -6.86802e-006 -0.142339 19.6975 69.2397 -20.6108 -8.14856 25.4263 3.22091 
51.4068 100.608 9.12414 -0.899044 -2.48143 3.25908 0.0579147 -2.22833 0.00867771 0.116547 -0.453843 0.0121016 0.117292 1.19123 0.0101188 -3.83355 29.6888 1.33674 -5.0155 -8.97446 -1.05626 66.3127 -2.20126 -2.10429 102.967 9.81589 17.9157 -9.91241e-006 -1.45595e-006 -2.58825e-008 12.1495 4.11286 -0.790941 -2.08028e-006 3.32346e-007 -3.00547 8.02887 -4.95145 0.697679 -62.7786 -3.90557 2.74262 -107.87 12.6555 -9.44432 4.79137e-006 5.59249e-007 4.82596e-006 -9.21967 1.24392 0.678041 5.20531e-006 5.26823e-006 2.99999 -8.02901 -4.95145 -0.697674 179.584 -1.52543 -1.2179 180 7.01548e-015 178.926 178.969 4.89683 179.707 -1.97084e-006 -2.10288e-006 0.0305599 -18.3519 67.5911 19.2003 8.13649 25.2327 -3.48774 -176.798 -1.09754 2.16108 4.54188e-006 -4.6773e-006 -1.11873 -2.02529 -7.73701 0.174178 1.95755e-006 -6.86802e-006 -0.142572 19.6959 69.238 -20.6091 -8.1485 25.4254 3.2203 
